<svg width="80" height="80" viewBox="0 0 80 80" fill="none" xmlns="http://www.w3.org/2000/svg">
<g filter="url(#filter0_ii_335_1425)">
<circle cx="35.0977" cy="44.9023" r="30.0977" fill="url(#paint0_linear_335_1425)"/>
<circle cx="35.0977" cy="44.9023" r="30.0977" fill="url(#paint1_radial_335_1425)"/>
</g>
<circle cx="35.0977" cy="44.9023" r="22.0117" fill="url(#paint2_linear_335_1425)"/>
<circle cx="35.0977" cy="44.9023" r="22.0117" fill="url(#paint3_radial_335_1425)"/>
<circle cx="35.0977" cy="44.9023" r="22.0117" fill="url(#paint4_radial_335_1425)"/>
<circle cx="35.0977" cy="44.9023" r="14.3945" fill="url(#paint5_linear_335_1425)"/>
<circle cx="35.0977" cy="44.9023" r="14.3945" fill="url(#paint6_radial_335_1425)"/>
<circle cx="35.0977" cy="44.9023" r="7.14844" fill="#B7ABC8"/>
<circle cx="35.0977" cy="44.9023" r="7.14844" fill="url(#paint7_radial_335_1425)"/>
<circle cx="35.0977" cy="44.9023" r="7.14844" fill="url(#paint8_radial_335_1425)"/>
<g filter="url(#filter1_f_335_1425)">
<path d="M35.7044 72.3232C50.8486 72.3232 63.1255 60.0464 63.1255 44.9021C63.1255 29.7578 50.8486 17.481 35.7044 17.481C20.5601 17.481 8.2832 29.7578 8.2832 44.9021C8.2832 60.0464 20.5601 72.3232 35.7044 72.3232Z" stroke="url(#paint9_linear_335_1425)" stroke-width="0.65"/>
</g>
<path d="M35.3361 44.6873C34.4897 43.8409 34.1773 42.8788 35.0237 42.0324L39.3112 37.7251C40.1576 36.8787 41.5299 36.8787 42.3763 37.7251C43.2227 38.5715 43.2227 39.9438 42.3763 40.7902L38.0888 45.0975C37.2424 45.9439 36.1824 45.5337 35.3361 44.6873Z" fill="#7C7088"/>
<path d="M35.3361 44.6873C34.4897 43.8409 34.1773 42.8788 35.0237 42.0324L39.3112 37.7251C40.1576 36.8787 41.5299 36.8787 42.3763 37.7251C43.2227 38.5715 43.2227 39.9438 42.3763 40.7902L38.0888 45.0975C37.2424 45.9439 36.1824 45.5337 35.3361 44.6873Z" fill="url(#paint10_linear_335_1425)"/>
<path d="M35.3361 44.6873C34.4897 43.8409 34.1773 42.8788 35.0237 42.0324L39.3112 37.7251C40.1576 36.8787 41.5299 36.8787 42.3763 37.7251C43.2227 38.5715 43.2227 39.9438 42.3763 40.7902L38.0888 45.0975C37.2424 45.9439 36.1824 45.5337 35.3361 44.6873Z" fill="url(#paint11_linear_335_1425)"/>
<path d="M56.006 5.19767L59.7291 15.0391L48.5181 22.8906C44.7321 12.8776 50.4916 7.51382 54.5424 4.72409C55.0661 4.36343 55.781 4.60295 56.006 5.19767Z" fill="#2983DF"/>
<path d="M56.006 5.19767L59.7291 15.0391L48.5181 22.8906C44.7321 12.8776 50.4916 7.51382 54.5424 4.72409C55.0661 4.36343 55.781 4.60295 56.006 5.19767Z" fill="url(#paint12_radial_335_1425)"/>
<path d="M56.006 5.19767L59.7291 15.0391L48.5181 22.8906C44.7321 12.8776 50.4916 7.51382 54.5424 4.72409C55.0661 4.36343 55.781 4.60295 56.006 5.19767Z" fill="url(#paint13_linear_335_1425)"/>
<path d="M74.732 23.9122L64.8455 20.3107L57.1327 31.6175C67.1916 35.2799 72.484 29.4547 75.2236 25.3699C75.5778 24.8418 75.3295 24.1299 74.732 23.9122Z" fill="#2980EB"/>
<path d="M74.732 23.9122L64.8455 20.3107L57.1327 31.6175C67.1916 35.2799 72.484 29.4547 75.2236 25.3699C75.5778 24.8418 75.3295 24.1299 74.732 23.9122Z" fill="url(#paint14_linear_335_1425)"/>
<path d="M74.732 23.9122L64.8455 20.3107L57.1327 31.6175C67.1916 35.2799 72.484 29.4547 75.2236 25.3699C75.5778 24.8418 75.3295 24.1299 74.732 23.9122Z" fill="url(#paint15_radial_335_1425)"/>
<g filter="url(#filter2_f_335_1425)">
<rect x="53.3066" y="6.56055" width="2.36384" height="13.144" rx="1.18192" transform="rotate(-20.5233 53.3066 6.56055)" fill="url(#paint16_radial_335_1425)"/>
</g>
<g filter="url(#filter3_f_335_1425)">
<rect x="74.1055" y="24.3013" width="2.36384" height="13.144" rx="1.18192" transform="rotate(110.612 74.1055 24.3013)" fill="url(#paint17_radial_335_1425)"/>
</g>
<g filter="url(#filter4_i_335_1425)">
<path d="M41.7013 26.7743L58.2656 14.5004C60.4633 12.8574 63.7487 13.2855 65.4069 14.9931C67.25 16.9711 67.4685 19.8832 65.8875 22.0318L53.6628 38.6455C50.5919 42.819 44.5372 43.3069 40.8376 39.679C37.1086 36.0223 37.5182 29.9015 41.7013 26.7743Z" fill="#52BCF0"/>
</g>
<path d="M41.7013 26.7743L58.2656 14.5004C60.4633 12.8574 63.7487 13.2855 65.4069 14.9931C67.25 16.9711 67.4685 19.8832 65.8875 22.0318L53.6628 38.6455C50.5919 42.819 44.5372 43.3069 40.8376 39.679C37.1086 36.0223 37.5182 29.9015 41.7013 26.7743Z" fill="url(#paint18_radial_335_1425)"/>
<path d="M41.7013 26.7743L58.2656 14.5004C60.4633 12.8574 63.7487 13.2855 65.4069 14.9931C67.25 16.9711 67.4685 19.8832 65.8875 22.0318L53.6628 38.6455C50.5919 42.819 44.5372 43.3069 40.8376 39.679C37.1086 36.0223 37.5182 29.9015 41.7013 26.7743Z" fill="url(#paint19_radial_335_1425)"/>
<path d="M41.7013 26.7743L58.2656 14.5004C60.4633 12.8574 63.7487 13.2855 65.4069 14.9931C67.25 16.9711 67.4685 19.8832 65.8875 22.0318L53.6628 38.6455C50.5919 42.819 44.5372 43.3069 40.8376 39.679C37.1086 36.0223 37.5182 29.9015 41.7013 26.7743Z" fill="url(#paint20_radial_335_1425)"/>
<g filter="url(#filter5_ii_335_1425)">
<rect x="65.0605" y="11.855" width="4.42006" height="22.5943" rx="0.884013" transform="rotate(45 65.0605 11.855)" fill="#2984E4"/>
</g>
<rect x="65.0605" y="11.855" width="4.42006" height="22.5943" rx="0.884013" transform="rotate(45 65.0605 11.855)" fill="url(#paint21_radial_335_1425)"/>
<defs>
<filter id="filter0_ii_335_1425" x="5" y="14.3047" width="60.6953" height="61.1953" filterUnits="userSpaceOnUse" color-interpolation-filters="sRGB">
<feFlood flood-opacity="0" result="BackgroundImageFix"/>
<feBlend mode="normal" in="SourceGraphic" in2="BackgroundImageFix" result="shape"/>
<feColorMatrix in="SourceAlpha" type="matrix" values="0 0 0 0 0 0 0 0 0 0 0 0 0 0 0 0 0 0 127 0" result="hardAlpha"/>
<feOffset dx="0.5" dy="-0.5"/>
<feGaussianBlur stdDeviation="0.5"/>
<feComposite in2="hardAlpha" operator="arithmetic" k2="-1" k3="1"/>
<feColorMatrix type="matrix" values="0 0 0 0 0.737255 0 0 0 0 0.160784 0 0 0 0 0.329412 0 0 0 1 0"/>
<feBlend mode="normal" in2="shape" result="effect1_innerShadow_335_1425"/>
<feColorMatrix in="SourceAlpha" type="matrix" values="0 0 0 0 0 0 0 0 0 0 0 0 0 0 0 0 0 0 127 0" result="hardAlpha"/>
<feOffset dx="0.5" dy="0.5"/>
<feGaussianBlur stdDeviation="0.5"/>
<feComposite in2="hardAlpha" operator="arithmetic" k2="-1" k3="1"/>
<feColorMatrix type="matrix" values="0 0 0 0 0.74902 0 0 0 0 0.341176 0 0 0 0 0.490196 0 0 0 1 0"/>
<feBlend mode="normal" in2="effect1_innerShadow_335_1425" result="effect2_innerShadow_335_1425"/>
</filter>
<filter id="filter1_f_335_1425" x="7.30801" y="16.5058" width="56.7927" height="56.7927" filterUnits="userSpaceOnUse" color-interpolation-filters="sRGB">
<feFlood flood-opacity="0" result="BackgroundImageFix"/>
<feBlend mode="normal" in="SourceGraphic" in2="BackgroundImageFix" result="shape"/>
<feGaussianBlur stdDeviation="0.325" result="effect1_foregroundBlur_335_1425"/>
</filter>
<filter id="filter2_f_335_1425" x="53.1455" y="5.5708" width="7.14404" height="13.4604" filterUnits="userSpaceOnUse" color-interpolation-filters="sRGB">
<feFlood flood-opacity="0" result="BackgroundImageFix"/>
<feBlend mode="normal" in="SourceGraphic" in2="BackgroundImageFix" result="shape"/>
<feGaussianBlur stdDeviation="0.25" result="effect1_foregroundBlur_335_1425"/>
</filter>
<filter id="filter3_f_335_1425" x="60.811" y="19.5142" width="13.4541" height="7.15967" filterUnits="userSpaceOnUse" color-interpolation-filters="sRGB">
<feFlood flood-opacity="0" result="BackgroundImageFix"/>
<feBlend mode="normal" in="SourceGraphic" in2="BackgroundImageFix" result="shape"/>
<feGaussianBlur stdDeviation="0.25" result="effect1_foregroundBlur_335_1425"/>
</filter>
<filter id="filter4_i_335_1425" x="38.2832" y="13.4668" width="28.9116" height="28.8989" filterUnits="userSpaceOnUse" color-interpolation-filters="sRGB">
<feFlood flood-opacity="0" result="BackgroundImageFix"/>
<feBlend mode="normal" in="SourceGraphic" in2="BackgroundImageFix" result="shape"/>
<feColorMatrix in="SourceAlpha" type="matrix" values="0 0 0 0 0 0 0 0 0 0 0 0 0 0 0 0 0 0 127 0" result="hardAlpha"/>
<feOffset dx="0.25" dy="0.25"/>
<feGaussianBlur stdDeviation="0.5"/>
<feComposite in2="hardAlpha" operator="arithmetic" k2="-1" k3="1"/>
<feColorMatrix type="matrix" values="0 0 0 0 0.45098 0 0 0 0 0.65098 0 0 0 0 0.737255 0 0 0 1 0"/>
<feBlend mode="normal" in2="shape" result="effect1_innerShadow_335_1425"/>
</filter>
<filter id="filter5_ii_335_1425" x="49.3002" y="12.0712" width="18.6696" height="18.6696" filterUnits="userSpaceOnUse" color-interpolation-filters="sRGB">
<feFlood flood-opacity="0" result="BackgroundImageFix"/>
<feBlend mode="normal" in="SourceGraphic" in2="BackgroundImageFix" result="shape"/>
<feColorMatrix in="SourceAlpha" type="matrix" values="0 0 0 0 0 0 0 0 0 0 0 0 0 0 0 0 0 0 127 0" result="hardAlpha"/>
<feOffset dx="0.15" dy="0.15"/>
<feGaussianBlur stdDeviation="0.15"/>
<feComposite in2="hardAlpha" operator="arithmetic" k2="-1" k3="1"/>
<feColorMatrix type="matrix" values="0 0 0 0 0.160784 0 0 0 0 0.521569 0 0 0 0 0.764706 0 0 0 1 0"/>
<feBlend mode="normal" in2="shape" result="effect1_innerShadow_335_1425"/>
<feColorMatrix in="SourceAlpha" type="matrix" values="0 0 0 0 0 0 0 0 0 0 0 0 0 0 0 0 0 0 127 0" result="hardAlpha"/>
<feOffset dx="-0.15" dy="-0.15"/>
<feGaussianBlur stdDeviation="0.225"/>
<feComposite in2="hardAlpha" operator="arithmetic" k2="-1" k3="1"/>
<feColorMatrix type="matrix" values="0 0 0 0 0.235294 0 0 0 0 0.435294 0 0 0 0 0.831373 0 0 0 1 0"/>
<feBlend mode="normal" in2="effect1_innerShadow_335_1425" result="effect2_innerShadow_335_1425"/>
</filter>
<linearGradient id="paint0_linear_335_1425" x1="48.8339" y1="17.8034" x2="23.5827" y2="69.1646" gradientUnits="userSpaceOnUse">
<stop stop-color="#E6378B"/>
<stop offset="1" stop-color="#EF3A5C"/>
</linearGradient>
<radialGradient id="paint1_radial_335_1425" cx="0" cy="0" r="1" gradientUnits="userSpaceOnUse" gradientTransform="translate(49.9307 25.8243) rotate(124.825) scale(13.3367 19.3952)">
<stop offset="0.219108" stop-color="#B82974"/>
<stop offset="1" stop-color="#B82974" stop-opacity="0"/>
</radialGradient>
<linearGradient id="paint2_linear_335_1425" x1="50.8828" y1="55.9714" x2="18.197" y2="22.0162" gradientUnits="userSpaceOnUse">
<stop stop-color="#CEC3DF"/>
<stop offset="1" stop-color="#C5BCD3"/>
</linearGradient>
<radialGradient id="paint3_radial_335_1425" cx="0" cy="0" r="1" gradientUnits="userSpaceOnUse" gradientTransform="translate(28.0345 44.9023) scale(29.0749)">
<stop offset="0.86129" stop-color="#CBC4DF" stop-opacity="0"/>
<stop offset="1" stop-color="#CBC4DF"/>
</radialGradient>
<radialGradient id="paint4_radial_335_1425" cx="0" cy="0" r="1" gradientUnits="userSpaceOnUse" gradientTransform="translate(45.488 24.3963) rotate(118.217) scale(14.7656 8.08185)">
<stop stop-color="#9DA8B4"/>
<stop offset="1" stop-color="#9DA8B4" stop-opacity="0"/>
</radialGradient>
<linearGradient id="paint5_linear_335_1425" x1="44.6947" y1="35.1858" x2="27.7171" y2="58.034" gradientUnits="userSpaceOnUse">
<stop stop-color="#D2347A"/>
<stop offset="1" stop-color="#ED3963"/>
</linearGradient>
<radialGradient id="paint6_radial_335_1425" cx="0" cy="0" r="1" gradientUnits="userSpaceOnUse" gradientTransform="translate(42.4733 35.6618) rotate(131.253) scale(11.1857)">
<stop stop-color="#962359"/>
<stop offset="0.947427" stop-color="#962359" stop-opacity="0"/>
</radialGradient>
<radialGradient id="paint7_radial_335_1425" cx="0" cy="0" r="1" gradientUnits="userSpaceOnUse" gradientTransform="translate(33.7465 42.4845) rotate(67.2035) scale(11.8758)">
<stop offset="0.612995" stop-color="#C9BED9" stop-opacity="0"/>
<stop offset="1" stop-color="#C9BED9"/>
</radialGradient>
<radialGradient id="paint8_radial_335_1425" cx="0" cy="0" r="1" gradientUnits="userSpaceOnUse" gradientTransform="translate(38.3479 37.7539) rotate(103.843) scale(9.28432)">
<stop stop-color="#857D97"/>
<stop offset="1" stop-color="#857D97" stop-opacity="0"/>
</radialGradient>
<linearGradient id="paint9_linear_335_1425" x1="58.5507" y1="26.9565" x2="42.0723" y2="43.8088" gradientUnits="userSpaceOnUse">
<stop stop-color="#FF6AA2"/>
<stop offset="1" stop-color="#FF6AA2" stop-opacity="0"/>
</linearGradient>
<linearGradient id="paint10_linear_335_1425" x1="40.3707" y1="43.2022" x2="38.7675" y2="41.5553" gradientUnits="userSpaceOnUse">
<stop stop-color="#7E5F8A"/>
<stop offset="1" stop-color="#7E5F8A" stop-opacity="0"/>
</linearGradient>
<linearGradient id="paint11_linear_335_1425" x1="37.252" y1="39.5579" x2="37.8477" y2="40.1186" gradientUnits="userSpaceOnUse">
<stop stop-color="#746D7C"/>
<stop offset="1" stop-color="#746D7C" stop-opacity="0"/>
</linearGradient>
<radialGradient id="paint12_radial_335_1425" cx="0" cy="0" r="1" gradientUnits="userSpaceOnUse" gradientTransform="translate(53.9481 15.3906) rotate(-157.279) scale(6.77585 12.3024)">
<stop offset="0.749676" stop-color="#6897C2" stop-opacity="0"/>
<stop offset="1" stop-color="#6897C2"/>
</radialGradient>
<linearGradient id="paint13_linear_335_1425" x1="58.6747" y1="10.7812" x2="54.6903" y2="12.1875" gradientUnits="userSpaceOnUse">
<stop stop-color="#58C3FF"/>
<stop offset="1" stop-color="#58C3FF" stop-opacity="0"/>
</linearGradient>
<linearGradient id="paint14_linear_335_1425" x1="70.315" y1="21.328" x2="68.8306" y2="24.5311" gradientUnits="userSpaceOnUse">
<stop stop-color="#49B6FF"/>
<stop offset="1" stop-color="#49B6FF" stop-opacity="0"/>
</linearGradient>
<radialGradient id="paint15_radial_335_1425" cx="0" cy="0" r="1" gradientUnits="userSpaceOnUse" gradientTransform="translate(64.065 23.0858) rotate(79.5793) scale(10.3663 13.3536)">
<stop offset="0.814441" stop-color="#5066D2" stop-opacity="0"/>
<stop offset="0.92639" stop-color="#5066D2"/>
</radialGradient>
<radialGradient id="paint16_radial_335_1425" cx="0" cy="0" r="1" gradientUnits="userSpaceOnUse" gradientTransform="translate(54.5652 7.36778) rotate(86.9247) scale(12.4898 2.63704)">
<stop stop-color="#61CEFF"/>
<stop offset="1" stop-color="#3CB8FF" stop-opacity="0"/>
</radialGradient>
<radialGradient id="paint17_radial_335_1425" cx="0" cy="0" r="1" gradientUnits="userSpaceOnUse" gradientTransform="translate(75.3641 25.1085) rotate(86.9247) scale(12.4898 2.63704)">
<stop stop-color="#61CEFF"/>
<stop offset="1" stop-color="#3CB8FF" stop-opacity="0"/>
</radialGradient>
<radialGradient id="paint18_radial_335_1425" cx="0" cy="0" r="1" gradientUnits="userSpaceOnUse" gradientTransform="translate(67.8933 14.6875) rotate(143.326) scale(9.1563 9.43507)">
<stop offset="0.422676" stop-color="#6BFFFF"/>
<stop offset="1" stop-color="#6BFFFF" stop-opacity="0"/>
</radialGradient>
<radialGradient id="paint19_radial_335_1425" cx="0" cy="0" r="1" gradientUnits="userSpaceOnUse" gradientTransform="translate(60.0173 21.3648) rotate(137.684) scale(27.1173 27.4707)">
<stop offset="0.837515" stop-color="#5E9BDB" stop-opacity="0"/>
<stop offset="1" stop-color="#5E9BDB"/>
</radialGradient>
<radialGradient id="paint20_radial_335_1425" cx="0" cy="0" r="1" gradientUnits="userSpaceOnUse" gradientTransform="translate(52.2361 27.7912) rotate(134.318) scale(4.9263 2.59216)">
<stop offset="0.360543" stop-color="#49A0E1"/>
<stop offset="1" stop-color="#49A0E1" stop-opacity="0"/>
</radialGradient>
<radialGradient id="paint21_radial_335_1425" cx="0" cy="0" r="1" gradientUnits="userSpaceOnUse" gradientTransform="translate(67.0776 14.0647) rotate(-89.5692) scale(7.34749 2.7988)">
<stop stop-color="#60CAFF"/>
<stop offset="1" stop-color="#60CAFF" stop-opacity="0"/>
</radialGradient>
</defs>
</svg>
