<svg width="100" height="100" viewBox="0 0 100 100" fill="none" xmlns="http://www.w3.org/2000/svg">
<g filter="url(#filter0_ii_378_1104)">
<circle cx="43.8721" cy="56.1279" r="37.6221" fill="url(#paint0_linear_378_1104)"/>
<circle cx="43.8721" cy="56.1279" r="37.6221" fill="url(#paint1_radial_378_1104)"/>
</g>
<circle cx="43.8721" cy="56.1279" r="27.5146" fill="url(#paint2_linear_378_1104)"/>
<circle cx="43.8721" cy="56.1279" r="27.5146" fill="url(#paint3_radial_378_1104)"/>
<circle cx="43.8721" cy="56.1279" r="27.5146" fill="url(#paint4_radial_378_1104)"/>
<circle cx="43.8721" cy="56.1279" r="17.9932" fill="url(#paint5_linear_378_1104)"/>
<circle cx="43.8721" cy="56.1279" r="17.9932" fill="url(#paint6_radial_378_1104)"/>
<circle cx="43.8721" cy="56.1279" r="8.93555" fill="#B7ABC8"/>
<circle cx="43.8721" cy="56.1279" r="8.93555" fill="url(#paint7_radial_378_1104)"/>
<circle cx="43.8721" cy="56.1279" r="8.93555" fill="url(#paint8_radial_378_1104)"/>
<g filter="url(#filter1_f_378_1104)">
<path d="M44.6304 90.4044C63.5608 90.4044 78.9069 75.0583 78.9069 56.128C78.9069 37.1977 63.5608 21.8516 44.6304 21.8516C25.7001 21.8516 10.354 37.1977 10.354 56.128C10.354 75.0583 25.7001 90.4044 44.6304 90.4044Z" stroke="url(#paint9_linear_378_1104)" stroke-width="0.65"/>
</g>
<path d="M44.1699 55.8595C43.1119 54.8015 42.7215 53.5989 43.7795 52.5409L49.1389 47.1568C50.1969 46.0988 51.9122 46.0988 52.9702 47.1568C54.0282 48.2148 54.0282 49.9301 52.9702 50.9881L47.6108 56.3722C46.5528 57.4302 45.2279 56.9175 44.1699 55.8595Z" fill="#7C7088"/>
<path d="M44.1699 55.8595C43.1119 54.8015 42.7215 53.5989 43.7795 52.5409L49.1389 47.1568C50.1969 46.0988 51.9122 46.0988 52.9702 47.1568C54.0282 48.2148 54.0282 49.9301 52.9702 50.9881L47.6108 56.3722C46.5528 57.4302 45.2279 56.9175 44.1699 55.8595Z" fill="url(#paint10_linear_378_1104)"/>
<path d="M44.1699 55.8595C43.1119 54.8015 42.7215 53.5989 43.7795 52.5409L49.1389 47.1568C50.1969 46.0988 51.9122 46.0988 52.9702 47.1568C54.0282 48.2148 54.0282 49.9301 52.9702 50.9881L47.6108 56.3722C46.5528 57.4302 45.2279 56.9175 44.1699 55.8595Z" fill="url(#paint11_linear_378_1104)"/>
<path d="M69.8981 6.20841L74.6612 18.7988L60.6476 28.6133C55.8354 15.8867 63.3597 9.1686 68.4312 5.73204C68.9576 5.37535 69.6731 5.61369 69.8981 6.20841Z" fill="#2983DF"/>
<path d="M69.8981 6.20841L74.6612 18.7988L60.6476 28.6133C55.8354 15.8867 63.3597 9.1686 68.4312 5.73204C68.9576 5.37535 69.6731 5.61369 69.8981 6.20841Z" fill="url(#paint12_radial_378_1104)"/>
<path d="M69.8981 6.20841L74.6612 18.7988L60.6476 28.6133C55.8354 15.8867 63.3597 9.1686 68.4312 5.73204C68.9576 5.37535 69.6731 5.61369 69.8981 6.20841Z" fill="url(#paint13_linear_378_1104)"/>
<path d="M93.7051 29.9958L81.0569 25.3882L71.4159 39.5218C84.2008 44.1767 90.8257 36.5702 94.1995 31.4567C94.5497 30.926 94.3025 30.2135 93.7051 29.9958Z" fill="#2980EB"/>
<path d="M93.7051 29.9958L81.0569 25.3882L71.4159 39.5218C84.2008 44.1767 90.8257 36.5702 94.1995 31.4567C94.5497 30.926 94.3025 30.2135 93.7051 29.9958Z" fill="url(#paint14_linear_378_1104)"/>
<path d="M93.7051 29.9958L81.0569 25.3882L71.4159 39.5218C84.2008 44.1767 90.8257 36.5702 94.1995 31.4567C94.5497 30.926 94.3025 30.2135 93.7051 29.9958Z" fill="url(#paint15_radial_378_1104)"/>
<g filter="url(#filter2_f_378_1104)">
<rect x="66.6333" y="8.20068" width="2.9548" height="16.43" rx="1.4774" transform="rotate(-20.5233 66.6333 8.20068)" fill="url(#paint16_radial_378_1104)"/>
</g>
<g filter="url(#filter3_f_378_1104)">
<rect x="92.6313" y="30.3765" width="2.95481" height="16.43" rx="1.4774" transform="rotate(110.612 92.6313 30.3765)" fill="url(#paint17_radial_378_1104)"/>
</g>
<g filter="url(#filter4_i_378_1104)">
<path d="M52.1266 33.4679L72.832 18.1255C75.5792 16.0717 79.6859 16.6069 81.7586 18.7414C84.0624 21.2138 84.3356 24.854 82.3594 27.5397L67.0785 48.3068C63.2398 53.5237 55.6715 54.1336 51.047 49.5987C46.3857 45.0278 46.8977 37.3769 52.1266 33.4679Z" fill="#52BCF0"/>
</g>
<path d="M52.1266 33.4679L72.832 18.1255C75.5792 16.0717 79.6859 16.6069 81.7586 18.7414C84.0624 21.2138 84.3356 24.854 82.3594 27.5397L67.0785 48.3068C63.2398 53.5237 55.6715 54.1336 51.047 49.5987C46.3857 45.0278 46.8977 37.3769 52.1266 33.4679Z" fill="url(#paint18_radial_378_1104)"/>
<path d="M52.1266 33.4679L72.832 18.1255C75.5792 16.0717 79.6859 16.6069 81.7586 18.7414C84.0624 21.2138 84.3356 24.854 82.3594 27.5397L67.0785 48.3068C63.2398 53.5237 55.6715 54.1336 51.047 49.5987C46.3857 45.0278 46.8977 37.3769 52.1266 33.4679Z" fill="url(#paint19_radial_378_1104)"/>
<path d="M52.1266 33.4679L72.832 18.1255C75.5792 16.0717 79.6859 16.6069 81.7586 18.7414C84.0624 21.2138 84.3356 24.854 82.3594 27.5397L67.0785 48.3068C63.2398 53.5237 55.6715 54.1336 51.047 49.5987C46.3857 45.0278 46.8977 37.3769 52.1266 33.4679Z" fill="url(#paint20_radial_378_1104)"/>
<g filter="url(#filter5_ii_378_1104)">
<rect x="81.3257" y="14.8184" width="5.52508" height="28.2428" rx="0.884013" transform="rotate(45 81.3257 14.8184)" fill="#2984E4"/>
</g>
<rect x="81.3257" y="14.8184" width="5.52508" height="28.2428" rx="0.884013" transform="rotate(45 81.3257 14.8184)" fill="url(#paint21_radial_378_1104)"/>
<defs>
<filter id="filter0_ii_378_1104" x="6.25" y="18.0059" width="75.7441" height="76.2441" filterUnits="userSpaceOnUse" color-interpolation-filters="sRGB">
<feFlood flood-opacity="0" result="BackgroundImageFix"/>
<feBlend mode="normal" in="SourceGraphic" in2="BackgroundImageFix" result="shape"/>
<feColorMatrix in="SourceAlpha" type="matrix" values="0 0 0 0 0 0 0 0 0 0 0 0 0 0 0 0 0 0 127 0" result="hardAlpha"/>
<feOffset dx="0.5" dy="-0.5"/>
<feGaussianBlur stdDeviation="0.5"/>
<feComposite in2="hardAlpha" operator="arithmetic" k2="-1" k3="1"/>
<feColorMatrix type="matrix" values="0 0 0 0 0.737255 0 0 0 0 0.160784 0 0 0 0 0.329412 0 0 0 1 0"/>
<feBlend mode="normal" in2="shape" result="effect1_innerShadow_378_1104"/>
<feColorMatrix in="SourceAlpha" type="matrix" values="0 0 0 0 0 0 0 0 0 0 0 0 0 0 0 0 0 0 127 0" result="hardAlpha"/>
<feOffset dx="0.5" dy="0.5"/>
<feGaussianBlur stdDeviation="0.5"/>
<feComposite in2="hardAlpha" operator="arithmetic" k2="-1" k3="1"/>
<feColorMatrix type="matrix" values="0 0 0 0 0.74902 0 0 0 0 0.341176 0 0 0 0 0.490196 0 0 0 1 0"/>
<feBlend mode="normal" in2="effect1_innerShadow_378_1104" result="effect2_innerShadow_378_1104"/>
</filter>
<filter id="filter1_f_378_1104" x="9.37881" y="20.8764" width="70.5031" height="70.5031" filterUnits="userSpaceOnUse" color-interpolation-filters="sRGB">
<feFlood flood-opacity="0" result="BackgroundImageFix"/>
<feBlend mode="normal" in="SourceGraphic" in2="BackgroundImageFix" result="shape"/>
<feGaussianBlur stdDeviation="0.325" result="effect1_foregroundBlur_378_1104"/>
</filter>
<filter id="filter2_f_378_1104" x="66.5571" y="7.08838" width="8.67969" height="16.5757" filterUnits="userSpaceOnUse" color-interpolation-filters="sRGB">
<feFlood flood-opacity="0" result="BackgroundImageFix"/>
<feBlend mode="normal" in="SourceGraphic" in2="BackgroundImageFix" result="shape"/>
<feGaussianBlur stdDeviation="0.25" result="effect1_foregroundBlur_378_1104"/>
</filter>
<filter id="filter3_f_378_1104" x="76.1382" y="24.5176" width="16.5679" height="8.69922" filterUnits="userSpaceOnUse" color-interpolation-filters="sRGB">
<feFlood flood-opacity="0" result="BackgroundImageFix"/>
<feBlend mode="normal" in="SourceGraphic" in2="BackgroundImageFix" result="shape"/>
<feGaussianBlur stdDeviation="0.25" result="effect1_foregroundBlur_378_1104"/>
</filter>
<filter id="filter4_i_378_1104" x="47.854" y="16.8335" width="36.0767" height="36.061" filterUnits="userSpaceOnUse" color-interpolation-filters="sRGB">
<feFlood flood-opacity="0" result="BackgroundImageFix"/>
<feBlend mode="normal" in="SourceGraphic" in2="BackgroundImageFix" result="shape"/>
<feColorMatrix in="SourceAlpha" type="matrix" values="0 0 0 0 0 0 0 0 0 0 0 0 0 0 0 0 0 0 127 0" result="hardAlpha"/>
<feOffset dx="0.25" dy="0.25"/>
<feGaussianBlur stdDeviation="0.5"/>
<feComposite in2="hardAlpha" operator="arithmetic" k2="-1" k3="1"/>
<feColorMatrix type="matrix" values="0 0 0 0 0.45098 0 0 0 0 0.65098 0 0 0 0 0.737255 0 0 0 1 0"/>
<feBlend mode="normal" in2="shape" result="effect1_innerShadow_378_1104"/>
</filter>
<filter id="filter5_ii_378_1104" x="61.5712" y="15.0346" width="23.445" height="23.445" filterUnits="userSpaceOnUse" color-interpolation-filters="sRGB">
<feFlood flood-opacity="0" result="BackgroundImageFix"/>
<feBlend mode="normal" in="SourceGraphic" in2="BackgroundImageFix" result="shape"/>
<feColorMatrix in="SourceAlpha" type="matrix" values="0 0 0 0 0 0 0 0 0 0 0 0 0 0 0 0 0 0 127 0" result="hardAlpha"/>
<feOffset dx="0.15" dy="0.15"/>
<feGaussianBlur stdDeviation="0.15"/>
<feComposite in2="hardAlpha" operator="arithmetic" k2="-1" k3="1"/>
<feColorMatrix type="matrix" values="0 0 0 0 0.160784 0 0 0 0 0.521569 0 0 0 0 0.764706 0 0 0 1 0"/>
<feBlend mode="normal" in2="shape" result="effect1_innerShadow_378_1104"/>
<feColorMatrix in="SourceAlpha" type="matrix" values="0 0 0 0 0 0 0 0 0 0 0 0 0 0 0 0 0 0 127 0" result="hardAlpha"/>
<feOffset dx="-0.15" dy="-0.15"/>
<feGaussianBlur stdDeviation="0.225"/>
<feComposite in2="hardAlpha" operator="arithmetic" k2="-1" k3="1"/>
<feColorMatrix type="matrix" values="0 0 0 0 0.235294 0 0 0 0 0.435294 0 0 0 0 0.831373 0 0 0 1 0"/>
<feBlend mode="normal" in2="effect1_innerShadow_378_1104" result="effect2_innerShadow_378_1104"/>
</filter>
<linearGradient id="paint0_linear_378_1104" x1="61.0424" y1="22.2542" x2="29.4784" y2="86.4558" gradientUnits="userSpaceOnUse">
<stop stop-color="#E6378B"/>
<stop offset="1" stop-color="#EF3A5C"/>
</linearGradient>
<radialGradient id="paint1_radial_378_1104" cx="0" cy="0" r="1" gradientUnits="userSpaceOnUse" gradientTransform="translate(62.4134 32.2804) rotate(124.825) scale(16.6708 24.244)">
<stop offset="0.219108" stop-color="#B82974"/>
<stop offset="1" stop-color="#B82974" stop-opacity="0"/>
</radialGradient>
<linearGradient id="paint2_linear_378_1104" x1="63.6034" y1="69.9642" x2="22.7462" y2="27.5203" gradientUnits="userSpaceOnUse">
<stop stop-color="#CEC3DF"/>
<stop offset="1" stop-color="#C5BCD3"/>
</linearGradient>
<radialGradient id="paint3_radial_378_1104" cx="0" cy="0" r="1" gradientUnits="userSpaceOnUse" gradientTransform="translate(35.0431 56.1279) scale(36.3436)">
<stop offset="0.86129" stop-color="#CBC4DF" stop-opacity="0"/>
<stop offset="1" stop-color="#CBC4DF"/>
</radialGradient>
<radialGradient id="paint4_radial_378_1104" cx="0" cy="0" r="1" gradientUnits="userSpaceOnUse" gradientTransform="translate(56.86 30.4953) rotate(118.217) scale(18.457 10.1023)">
<stop stop-color="#9DA8B4"/>
<stop offset="1" stop-color="#9DA8B4" stop-opacity="0"/>
</radialGradient>
<linearGradient id="paint5_linear_378_1104" x1="55.8683" y1="43.9822" x2="34.6464" y2="72.5426" gradientUnits="userSpaceOnUse">
<stop stop-color="#D2347A"/>
<stop offset="1" stop-color="#ED3963"/>
</linearGradient>
<radialGradient id="paint6_radial_378_1104" cx="0" cy="0" r="1" gradientUnits="userSpaceOnUse" gradientTransform="translate(53.0916 44.5772) rotate(131.253) scale(13.9821)">
<stop stop-color="#962359"/>
<stop offset="0.947427" stop-color="#962359" stop-opacity="0"/>
</radialGradient>
<radialGradient id="paint7_radial_378_1104" cx="0" cy="0" r="1" gradientUnits="userSpaceOnUse" gradientTransform="translate(42.1832 53.1056) rotate(67.2035) scale(14.8448)">
<stop offset="0.612995" stop-color="#C9BED9" stop-opacity="0"/>
<stop offset="1" stop-color="#C9BED9"/>
</radialGradient>
<radialGradient id="paint8_radial_378_1104" cx="0" cy="0" r="1" gradientUnits="userSpaceOnUse" gradientTransform="translate(47.9349 47.1924) rotate(103.843) scale(11.6054)">
<stop stop-color="#857D97"/>
<stop offset="1" stop-color="#857D97" stop-opacity="0"/>
</radialGradient>
<linearGradient id="paint9_linear_378_1104" x1="73.1884" y1="33.696" x2="52.5904" y2="54.7614" gradientUnits="userSpaceOnUse">
<stop stop-color="#FF6AA2"/>
<stop offset="1" stop-color="#FF6AA2" stop-opacity="0"/>
</linearGradient>
<linearGradient id="paint10_linear_378_1104" x1="50.4633" y1="54.0031" x2="48.4593" y2="51.9444" gradientUnits="userSpaceOnUse">
<stop stop-color="#7E5F8A"/>
<stop offset="1" stop-color="#7E5F8A" stop-opacity="0"/>
</linearGradient>
<linearGradient id="paint11_linear_378_1104" x1="46.5649" y1="49.4477" x2="47.3096" y2="50.1486" gradientUnits="userSpaceOnUse">
<stop stop-color="#746D7C"/>
<stop offset="1" stop-color="#746D7C" stop-opacity="0"/>
</linearGradient>
<radialGradient id="paint12_radial_378_1104" cx="0" cy="0" r="1" gradientUnits="userSpaceOnUse" gradientTransform="translate(67.435 19.2383) rotate(-157.279) scale(8.46982 15.378)">
<stop offset="0.749676" stop-color="#6897C2" stop-opacity="0"/>
<stop offset="1" stop-color="#6897C2"/>
</radialGradient>
<linearGradient id="paint13_linear_378_1104" x1="73.3432" y1="13.4766" x2="68.3628" y2="15.2344" gradientUnits="userSpaceOnUse">
<stop stop-color="#58C3FF"/>
<stop offset="1" stop-color="#58C3FF" stop-opacity="0"/>
</linearGradient>
<linearGradient id="paint14_linear_378_1104" x1="87.8937" y1="26.6599" x2="86.0382" y2="30.6638" gradientUnits="userSpaceOnUse">
<stop stop-color="#49B6FF"/>
<stop offset="1" stop-color="#49B6FF" stop-opacity="0"/>
</linearGradient>
<radialGradient id="paint15_radial_378_1104" cx="0" cy="0" r="1" gradientUnits="userSpaceOnUse" gradientTransform="translate(80.0812 28.8572) rotate(79.5793) scale(12.9579 16.6921)">
<stop offset="0.814441" stop-color="#5066D2" stop-opacity="0"/>
<stop offset="0.92639" stop-color="#5066D2"/>
</radialGradient>
<radialGradient id="paint16_radial_378_1104" cx="0" cy="0" r="1" gradientUnits="userSpaceOnUse" gradientTransform="translate(68.2065 9.20973) rotate(86.9247) scale(15.6123 3.2963)">
<stop stop-color="#61CEFF"/>
<stop offset="1" stop-color="#3CB8FF" stop-opacity="0"/>
</radialGradient>
<radialGradient id="paint17_radial_378_1104" cx="0" cy="0" r="1" gradientUnits="userSpaceOnUse" gradientTransform="translate(94.2046 31.3855) rotate(86.9247) scale(15.6123 3.2963)">
<stop stop-color="#61CEFF"/>
<stop offset="1" stop-color="#3CB8FF" stop-opacity="0"/>
</radialGradient>
<radialGradient id="paint18_radial_378_1104" cx="0" cy="0" r="1" gradientUnits="userSpaceOnUse" gradientTransform="translate(84.8666 18.3594) rotate(143.326) scale(11.4454 11.7938)">
<stop offset="0.422676" stop-color="#6BFFFF"/>
<stop offset="1" stop-color="#6BFFFF" stop-opacity="0"/>
</radialGradient>
<radialGradient id="paint19_radial_378_1104" cx="0" cy="0" r="1" gradientUnits="userSpaceOnUse" gradientTransform="translate(75.0216 26.706) rotate(137.684) scale(33.8966 34.3383)">
<stop offset="0.837515" stop-color="#5E9BDB" stop-opacity="0"/>
<stop offset="1" stop-color="#5E9BDB"/>
</radialGradient>
<radialGradient id="paint20_radial_378_1104" cx="0" cy="0" r="1" gradientUnits="userSpaceOnUse" gradientTransform="translate(65.2951 34.739) rotate(134.318) scale(6.15787 3.2402)">
<stop offset="0.360543" stop-color="#49A0E1"/>
<stop offset="1" stop-color="#49A0E1" stop-opacity="0"/>
</radialGradient>
<radialGradient id="paint21_radial_378_1104" cx="0" cy="0" r="1" gradientUnits="userSpaceOnUse" gradientTransform="translate(83.8469 17.5805) rotate(-89.5692) scale(9.18436 3.4985)">
<stop stop-color="#60CAFF"/>
<stop offset="1" stop-color="#60CAFF" stop-opacity="0"/>
</radialGradient>
</defs>
</svg>
