<svg width="86" height="16" viewBox="0 0 86 16" fill="none" xmlns="http://www.w3.org/2000/svg">
<path d="M0.808594 15V0.859375H6.43359C9.54883 0.859375 11.1309 2.36328 11.1211 4.49219C11.1309 6.15234 10.0371 7.19727 8.58203 7.51953V7.65625C10.1738 7.73438 11.6777 9.00391 11.6875 11.0938C11.6777 13.3398 9.99805 15 6.80469 15H0.808594ZM3.73828 12.5781H6.21875C7.91797 12.5879 8.65039 11.8848 8.64062 10.8203C8.65039 9.62891 7.74219 8.78906 6.29688 8.78906H3.73828V12.5781ZM3.73828 6.77734H6.00391C7.23438 6.78711 8.16211 6.09375 8.15234 4.96094C8.16211 3.93555 7.40039 3.24219 6.0625 3.24219H3.73828V6.77734ZM20.25 15.2148C17.0469 15.2051 15.0449 13.0078 15.0547 9.72656C15.0449 6.45508 17.0469 4.25781 20.25 4.25781C23.4629 4.25781 25.4551 6.45508 25.4648 9.72656C25.4551 13.0078 23.4629 15.2051 20.25 15.2148ZM17.9844 9.72656C17.9844 11.582 18.7559 12.959 20.2695 12.9688C21.7441 12.959 22.5254 11.582 22.5156 9.72656C22.5254 7.86133 21.7441 6.46484 20.2695 6.46484C18.7559 6.46484 17.9844 7.86133 17.9844 9.72656ZM32.1719 8.86719V15H29.2812V0.859375H32.0938V6.25H32.2109C32.6992 5.00977 33.7637 4.25781 35.375 4.25781C37.5918 4.25781 39.0469 5.75195 39.0469 8.24219V15H36.1562V8.75C36.1562 7.43164 35.4531 6.66016 34.2422 6.66016C33.0215 6.66016 32.1719 7.4707 32.1719 8.86719ZM48.0781 15.2148C44.8262 15.2051 42.834 13.1055 42.8438 9.74609C42.834 6.47461 44.8555 4.25781 47.9609 4.25781C50.7441 4.25781 52.9414 6.01562 52.9414 9.62891V10.4492H45.6953C45.6953 12.0508 46.6426 13.0371 48.1367 13.0469C49.123 13.0371 49.8262 12.6074 50.1094 11.9727H52.8633C52.4531 13.9355 50.6953 15.2051 48.0781 15.2148ZM45.6953 8.63281H50.207C50.1973 7.34375 49.3086 6.41602 48.0195 6.42578C46.6914 6.41602 45.7539 7.41211 45.6953 8.63281ZM61.5234 15.2148C58.3203 15.2051 56.3184 13.0078 56.3281 9.72656C56.3184 6.45508 58.3203 4.25781 61.5234 4.25781C64.7363 4.25781 66.7285 6.45508 66.7383 9.72656C66.7285 13.0078 64.7363 15.2051 61.5234 15.2148ZM59.2578 9.72656C59.2578 11.582 60.0293 12.959 61.543 12.9688C63.0176 12.959 63.7988 11.582 63.7891 9.72656C63.7988 7.86133 63.0176 6.46484 61.543 6.46484C60.0293 6.46484 59.2578 7.86133 59.2578 9.72656ZM70.5547 15V4.39453H73.3086V6.25H73.4258C73.875 5.00977 74.9492 4.25781 76.375 4.25781C77.8301 4.25781 78.9141 5.0293 79.2656 6.25H79.3633C79.8027 5.04883 81.0137 4.25781 82.5664 4.25781C84.5293 4.25781 85.9062 5.55664 85.9062 7.87109V15H83.0156V8.4375C83.0254 7.22656 82.3027 6.64062 81.3555 6.64062C80.2715 6.64062 79.627 7.39258 79.6367 8.51562V15H76.8242V8.35938C76.834 7.31445 76.1699 6.64062 75.1836 6.64062C74.1973 6.64062 73.4355 7.43164 73.4453 8.63281V15H70.5547Z" fill="#44EA51"/>
</svg>
