<svg width="32" height="32" viewBox="0 0 32 32" fill="none" xmlns="http://www.w3.org/2000/svg">
<g filter="url(#filter0_iii_336_1482)">
<path d="M23.7674 23.4264C27.215 23.2563 30.0099 20.4848 30.1425 17.1029C30.2955 13.3309 27.2252 10.2292 23.4206 10.2292H23.4104C23.033 10.2292 22.7576 9.90902 22.8086 9.54883C22.8698 9.1386 22.8902 8.71835 22.8698 8.27811C22.6964 4.87625 19.871 2.13477 16.403 2.0047C12.5677 1.86462 9.41589 4.87626 9.41589 8.59829C9.41589 8.91847 9.43629 9.23866 9.48729 9.54883C9.53829 9.90902 9.24249 10.2092 8.88549 10.2092H8.87529C5.07065 10.2092 2.00043 13.3109 2.15343 17.0829C2.28603 20.4748 5.08085 23.2363 8.52848 23.4064C10.5277 23.5064 12.3535 22.746 13.6489 21.4653C13.8223 21.2952 14.1079 21.4153 14.1079 21.6454V22.9061C14.1079 25.0072 12.3943 26.7182 10.2523 26.7582H10.2217C9.31389 26.7582 8.52848 27.4586 8.50808 28.3491C8.48768 29.2596 9.24249 30 10.1605 30H10.1707H10.2523H15.0157H17.2496H22.013H22.0946H22.1048C22.8188 30 23.4716 29.5598 23.6756 28.8994C24.0326 27.7788 23.186 26.7582 22.1048 26.7582H22.0232C19.8914 26.7182 18.1676 25.0072 18.1676 22.9061V21.6454C18.1676 21.4053 18.4634 21.2952 18.6266 21.4653C19.9526 22.7661 21.7682 23.5265 23.7674 23.4264Z" fill="url(#paint0_linear_336_1482)"/>
</g>
<defs>
<filter id="filter0_iii_336_1482" x="1.14795" y="1.25" width="29.75" height="29.5" filterUnits="userSpaceOnUse" color-interpolation-filters="sRGB">
<feFlood flood-opacity="0" result="BackgroundImageFix"/>
<feBlend mode="normal" in="SourceGraphic" in2="BackgroundImageFix" result="shape"/>
<feColorMatrix in="SourceAlpha" type="matrix" values="0 0 0 0 0 0 0 0 0 0 0 0 0 0 0 0 0 0 127 0" result="hardAlpha"/>
<feOffset dx="-1"/>
<feGaussianBlur stdDeviation="0.5"/>
<feComposite in2="hardAlpha" operator="arithmetic" k2="-1" k3="1"/>
<feColorMatrix type="matrix" values="0 0 0 0 0.427451 0 0 0 0 0.372549 0 0 0 0 0.482353 0 0 0 1 0"/>
<feBlend mode="normal" in2="shape" result="effect1_innerShadow_336_1482"/>
<feColorMatrix in="SourceAlpha" type="matrix" values="0 0 0 0 0 0 0 0 0 0 0 0 0 0 0 0 0 0 127 0" result="hardAlpha"/>
<feOffset dx="0.75" dy="-0.75"/>
<feGaussianBlur stdDeviation="0.625"/>
<feComposite in2="hardAlpha" operator="arithmetic" k2="-1" k3="1"/>
<feColorMatrix type="matrix" values="0 0 0 0 0.172549 0 0 0 0 0.109804 0 0 0 0 0.227451 0 0 0 1 0"/>
<feBlend mode="normal" in2="effect1_innerShadow_336_1482" result="effect2_innerShadow_336_1482"/>
<feColorMatrix in="SourceAlpha" type="matrix" values="0 0 0 0 0 0 0 0 0 0 0 0 0 0 0 0 0 0 127 0" result="hardAlpha"/>
<feOffset dx="0.75" dy="0.75"/>
<feGaussianBlur stdDeviation="0.625"/>
<feComposite in2="hardAlpha" operator="arithmetic" k2="-1" k3="1"/>
<feColorMatrix type="matrix" values="0 0 0 0 0.196078 0 0 0 0 0.192157 0 0 0 0 0.2 0 0 0 1 0"/>
<feBlend mode="normal" in2="effect2_innerShadow_336_1482" result="effect3_innerShadow_336_1482"/>
</filter>
<linearGradient id="paint0_linear_336_1482" x1="24.4651" y1="11.0784" x2="11.6023" y2="29.1961" gradientUnits="userSpaceOnUse">
<stop stop-color="#534165"/>
<stop offset="1" stop-color="#3F3946"/>
</linearGradient>
</defs>
</svg>
