<svg width="32" height="32" viewBox="0 0 32 32" fill="none" xmlns="http://www.w3.org/2000/svg">
<path d="M15.8916 27.3377C15.407 27.3377 15.0063 27.3071 14.66 27.216C14.5551 27.1883 14.4854 27.0915 14.4854 26.9831V24.23C14.4855 24.2195 14.4856 24.209 14.4857 24.1984C14.4959 23.3043 14.5134 21.7781 16.2197 20.8319C17.6123 20.0596 19.4689 19.4782 21.9072 19.459C21.9281 19.459 21.9489 19.4585 21.9697 19.4586C21.9905 19.4585 22.0114 19.4585 22.0322 19.4585C24.4706 19.4777 26.3271 20.0596 27.7197 20.8319C29.426 21.7781 29.4435 23.3043 29.4537 24.1984C29.4539 24.209 29.454 24.2195 29.4541 24.23V26.9831C29.4541 27.0915 29.3843 27.1883 29.2794 27.216C28.9332 27.3071 28.5281 27.3377 28.0479 27.3377H15.8916Z" fill="url(#paint0_radial_336_1537)"/>
<path d="M15.8916 27.3377C15.407 27.3377 15.0063 27.3071 14.66 27.216C14.5551 27.1883 14.4854 27.0915 14.4854 26.9831V24.23C14.4855 24.2195 14.4856 24.209 14.4857 24.1984C14.4959 23.3043 14.5134 21.7781 16.2197 20.8319C17.6123 20.0596 19.4689 19.4782 21.9072 19.459C21.9281 19.459 21.9489 19.4585 21.9697 19.4586C21.9905 19.4585 22.0114 19.4585 22.0322 19.4585C24.4706 19.4777 26.3271 20.0596 27.7197 20.8319C29.426 21.7781 29.4435 23.3043 29.4537 24.1984C29.4539 24.209 29.454 24.2195 29.4541 24.23V26.9831C29.4541 27.0915 29.3843 27.1883 29.2794 27.216C28.9332 27.3071 28.5281 27.3377 28.0479 27.3377H15.8916Z" fill="url(#paint1_radial_336_1537)"/>
<path d="M15.8916 27.3377C15.407 27.3377 15.0063 27.3071 14.66 27.216C14.5551 27.1883 14.4854 27.0915 14.4854 26.9831V24.23C14.4855 24.2195 14.4856 24.209 14.4857 24.1984C14.4959 23.3043 14.5134 21.7781 16.2197 20.8319C17.6123 20.0596 19.4689 19.4782 21.9072 19.459C21.9281 19.459 21.9489 19.4585 21.9697 19.4586C21.9905 19.4585 22.0114 19.4585 22.0322 19.4585C24.4706 19.4777 26.3271 20.0596 27.7197 20.8319C29.426 21.7781 29.4435 23.3043 29.4537 24.1984C29.4539 24.209 29.454 24.2195 29.4541 24.23V26.9831C29.4541 27.0915 29.3843 27.1883 29.2794 27.216C28.9332 27.3071 28.5281 27.3377 28.0479 27.3377H15.8916Z" fill="url(#paint2_radial_336_1537)"/>
<circle cx="17.2298" cy="13.4065" r="1.6995" fill="url(#paint3_radial_336_1537)"/>
<circle cx="26.7102" cy="13.4065" r="1.6995" fill="url(#paint4_radial_336_1537)"/>
<g filter="url(#filter0_f_336_1537)">
<circle cx="26.7105" cy="13.4068" r="1.21393" fill="url(#paint5_radial_336_1537)"/>
</g>
<g filter="url(#filter1_f_336_1537)">
<circle cx="17.3692" cy="13.4068" r="1.21393" fill="#140F1A"/>
</g>
<path d="M17.0112 16.2323L16.7254 10.0049C16.5797 7.765 18.0848 5.77103 21.059 5.86815H22.9408C26.097 5.86815 27.3535 7.85636 27.2138 10.0926L26.9314 16.2223C26.8035 18.2697 25.053 19.8041 22.9165 19.8648H21.1077C18.9105 19.8648 17.1441 18.2755 17.0112 16.2323Z" fill="url(#paint6_radial_336_1537)"/>
<path d="M17.0112 16.2323L16.7254 10.0049C16.5797 7.765 18.0848 5.77103 21.059 5.86815H22.9408C26.097 5.86815 27.3535 7.85636 27.2138 10.0926L26.9314 16.2223C26.8035 18.2697 25.053 19.8041 22.9165 19.8648H21.1077C18.9105 19.8648 17.1441 18.2755 17.0112 16.2323Z" fill="url(#paint7_radial_336_1537)"/>
<path d="M3.0127 27.3377C2.5752 27.3377 2.12736 27.3071 1.7811 27.216C1.6762 27.1883 1.60645 27.0915 1.60645 26.9831V24.23C1.60657 24.2195 1.60669 24.209 1.60681 24.1984C1.61704 23.3043 1.6345 21.7781 3.34082 20.8319C4.73342 20.0596 6.58999 19.4782 9.02832 19.459C9.0492 19.459 9.07003 19.4585 9.09082 19.4586C9.11161 19.4585 9.13244 19.4585 9.15332 19.4585C11.5916 19.4777 13.4482 20.0596 14.8408 20.8319C16.5471 21.7781 16.5646 23.3043 16.5748 24.1984C16.575 24.209 16.5751 24.2195 16.5752 24.23V26.9831C16.5752 27.0915 16.5054 27.1883 16.4005 27.216C16.0543 27.3071 15.5908 27.3377 15.1689 27.3377H3.0127Z" fill="url(#paint8_radial_336_1537)"/>
<path d="M3.0127 27.3377C2.5752 27.3377 2.12736 27.3071 1.7811 27.216C1.6762 27.1883 1.60645 27.0915 1.60645 26.9831V24.23C1.60657 24.2195 1.60669 24.209 1.60681 24.1984C1.61704 23.3043 1.6345 21.7781 3.34082 20.8319C4.73342 20.0596 6.58999 19.4782 9.02832 19.459C9.0492 19.459 9.07003 19.4585 9.09082 19.4586C9.11161 19.4585 9.13244 19.4585 9.15332 19.4585C11.5916 19.4777 13.4482 20.0596 14.8408 20.8319C16.5471 21.7781 16.5646 23.3043 16.5748 24.1984C16.575 24.209 16.5751 24.2195 16.5752 24.23V26.9831C16.5752 27.0915 16.5054 27.1883 16.4005 27.216C16.0543 27.3071 15.5908 27.3377 15.1689 27.3377H3.0127Z" fill="url(#paint9_radial_336_1537)"/>
<path d="M3.0127 27.3377C2.5752 27.3377 2.12736 27.3071 1.7811 27.216C1.6762 27.1883 1.60645 27.0915 1.60645 26.9831V24.23C1.60657 24.2195 1.60669 24.209 1.60681 24.1984C1.61704 23.3043 1.6345 21.7781 3.34082 20.8319C4.73342 20.0596 6.58999 19.4782 9.02832 19.459C9.0492 19.459 9.07003 19.4585 9.09082 19.4586C9.11161 19.4585 9.13244 19.4585 9.15332 19.4585C11.5916 19.4777 13.4482 20.0596 14.8408 20.8319C16.5471 21.7781 16.5646 23.3043 16.5748 24.1984C16.575 24.209 16.5751 24.2195 16.5752 24.23V26.9831C16.5752 27.0915 16.5054 27.1883 16.4005 27.216C16.0543 27.3071 15.5908 27.3377 15.1689 27.3377H3.0127Z" fill="url(#paint10_radial_336_1537)"/>
<circle cx="4.35038" cy="13.4065" r="1.6995" fill="url(#paint11_radial_336_1537)"/>
<circle cx="13.8313" cy="13.4065" r="1.6995" fill="url(#paint12_radial_336_1537)"/>
<g filter="url(#filter2_f_336_1537)">
<circle cx="13.8311" cy="13.4068" r="1.21393" fill="url(#paint13_radial_336_1537)"/>
</g>
<g filter="url(#filter3_f_336_1537)">
<circle cx="4.4903" cy="13.4068" r="1.21393" fill="#140F1A"/>
</g>
<path d="M4.13176 16.2323L3.84602 10.0049C3.70032 7.765 5.20542 5.77103 8.17959 5.86815H10.0614C13.2176 5.86815 14.4741 7.85636 14.3344 10.0926L14.052 16.2223C13.9242 18.2697 12.1736 19.8041 10.0371 19.8648H8.22835C6.03114 19.8648 4.26466 18.2755 4.13176 16.2323Z" fill="url(#paint14_radial_336_1537)"/>
<path d="M4.13176 16.2323L3.84602 10.0049C3.70032 7.765 5.20542 5.77103 8.17959 5.86815H10.0614C13.2176 5.86815 14.4741 7.85636 14.3344 10.0926L14.052 16.2223C13.9242 18.2697 12.1736 19.8041 10.0371 19.8648H8.22835C6.03114 19.8648 4.26466 18.2755 4.13176 16.2323Z" fill="url(#paint15_radial_336_1537)"/>
<defs>
<filter id="filter0_f_336_1537" x="25.2466" y="11.9429" width="2.92773" height="2.92773" filterUnits="userSpaceOnUse" color-interpolation-filters="sRGB">
<feFlood flood-opacity="0" result="BackgroundImageFix"/>
<feBlend mode="normal" in="SourceGraphic" in2="BackgroundImageFix" result="shape"/>
<feGaussianBlur stdDeviation="0.125" result="effect1_foregroundBlur_336_1537"/>
</filter>
<filter id="filter1_f_336_1537" x="15.9053" y="11.9429" width="2.92773" height="2.92773" filterUnits="userSpaceOnUse" color-interpolation-filters="sRGB">
<feFlood flood-opacity="0" result="BackgroundImageFix"/>
<feBlend mode="normal" in="SourceGraphic" in2="BackgroundImageFix" result="shape"/>
<feGaussianBlur stdDeviation="0.125" result="effect1_foregroundBlur_336_1537"/>
</filter>
<filter id="filter2_f_336_1537" x="12.3672" y="11.9429" width="2.92773" height="2.92773" filterUnits="userSpaceOnUse" color-interpolation-filters="sRGB">
<feFlood flood-opacity="0" result="BackgroundImageFix"/>
<feBlend mode="normal" in="SourceGraphic" in2="BackgroundImageFix" result="shape"/>
<feGaussianBlur stdDeviation="0.125" result="effect1_foregroundBlur_336_1537"/>
</filter>
<filter id="filter3_f_336_1537" x="3.02637" y="11.9429" width="2.92773" height="2.92773" filterUnits="userSpaceOnUse" color-interpolation-filters="sRGB">
<feFlood flood-opacity="0" result="BackgroundImageFix"/>
<feBlend mode="normal" in="SourceGraphic" in2="BackgroundImageFix" result="shape"/>
<feGaussianBlur stdDeviation="0.125" result="effect1_foregroundBlur_336_1537"/>
</filter>
<radialGradient id="paint0_radial_336_1537" cx="0" cy="0" r="1" gradientUnits="userSpaceOnUse" gradientTransform="translate(28.5947 26.396) rotate(180) scale(9.65625 10.9688)">
<stop stop-color="#302B35"/>
<stop offset="0.362459" stop-color="#17111B"/>
</radialGradient>
<radialGradient id="paint1_radial_336_1537" cx="0" cy="0" r="1" gradientUnits="userSpaceOnUse" gradientTransform="translate(28.7822 22.1772) rotate(105.668) scale(2.66139 5.54405)">
<stop offset="0.186089" stop-color="#3D3940"/>
<stop offset="1" stop-color="#3D3940" stop-opacity="0"/>
</radialGradient>
<radialGradient id="paint2_radial_336_1537" cx="0" cy="0" r="1" gradientUnits="userSpaceOnUse" gradientTransform="translate(20.751 19.2085) rotate(69.291) scale(2.7395 5.19692)">
<stop stop-color="#050208"/>
<stop offset="1" stop-color="#050208" stop-opacity="0"/>
</radialGradient>
<radialGradient id="paint3_radial_336_1537" cx="0" cy="0" r="1" gradientUnits="userSpaceOnUse" gradientTransform="translate(17.2298 13.4065) rotate(90) scale(1.6995)">
<stop offset="0.521429" stop-color="#1A1420"/>
<stop offset="1" stop-color="#120E17"/>
</radialGradient>
<radialGradient id="paint4_radial_336_1537" cx="0" cy="0" r="1" gradientUnits="userSpaceOnUse" gradientTransform="translate(27.8392 12.2412) rotate(111.508) scale(3.07929)">
<stop offset="0.262056" stop-color="#413949"/>
<stop offset="1" stop-color="#190E22"/>
</radialGradient>
<radialGradient id="paint5_radial_336_1537" cx="0" cy="0" r="1" gradientUnits="userSpaceOnUse" gradientTransform="translate(26.7105 13.4068) rotate(90) scale(1.21393)">
<stop stop-color="#332C3A"/>
<stop offset="1" stop-color="#150921"/>
</radialGradient>
<radialGradient id="paint6_radial_336_1537" cx="0" cy="0" r="1" gradientUnits="userSpaceOnUse" gradientTransform="translate(25.8243 7.19133) rotate(108.829) scale(13.39 10.6472)">
<stop offset="0.0971492" stop-color="#3C2B4F"/>
<stop offset="1" stop-color="#0B0410"/>
</radialGradient>
<radialGradient id="paint7_radial_336_1537" cx="0" cy="0" r="1" gradientUnits="userSpaceOnUse" gradientTransform="translate(24.5375 8.3567) rotate(90) scale(1.23821 2.88184)">
<stop stop-color="#493E56"/>
<stop offset="1" stop-color="#493E56" stop-opacity="0"/>
</radialGradient>
<radialGradient id="paint8_radial_336_1537" cx="0" cy="0" r="1" gradientUnits="userSpaceOnUse" gradientTransform="translate(15.7158 26.396) rotate(180) scale(9.65625 10.9687)">
<stop stop-color="#302B35"/>
<stop offset="0.362459" stop-color="#17111B"/>
</radialGradient>
<radialGradient id="paint9_radial_336_1537" cx="0" cy="0" r="1" gradientUnits="userSpaceOnUse" gradientTransform="translate(15.9033 22.1772) rotate(105.668) scale(2.66139 5.54405)">
<stop offset="0.186089" stop-color="#3D3940"/>
<stop offset="1" stop-color="#3D3940" stop-opacity="0"/>
</radialGradient>
<radialGradient id="paint10_radial_336_1537" cx="0" cy="0" r="1" gradientUnits="userSpaceOnUse" gradientTransform="translate(7.87207 19.2085) rotate(69.291) scale(2.7395 5.19692)">
<stop stop-color="#050208"/>
<stop offset="1" stop-color="#050208" stop-opacity="0"/>
</radialGradient>
<radialGradient id="paint11_radial_336_1537" cx="0" cy="0" r="1" gradientUnits="userSpaceOnUse" gradientTransform="translate(4.35038 13.4065) rotate(90) scale(1.6995)">
<stop offset="0.521429" stop-color="#1A1420"/>
<stop offset="1" stop-color="#120E17"/>
</radialGradient>
<radialGradient id="paint12_radial_336_1537" cx="0" cy="0" r="1" gradientUnits="userSpaceOnUse" gradientTransform="translate(14.9603 12.2412) rotate(111.508) scale(3.07929)">
<stop offset="0.262056" stop-color="#413949"/>
<stop offset="1" stop-color="#190E22"/>
</radialGradient>
<radialGradient id="paint13_radial_336_1537" cx="0" cy="0" r="1" gradientUnits="userSpaceOnUse" gradientTransform="translate(13.8311 13.4068) rotate(90) scale(1.21393)">
<stop stop-color="#332C3A"/>
<stop offset="1" stop-color="#150921"/>
</radialGradient>
<radialGradient id="paint14_radial_336_1537" cx="0" cy="0" r="1" gradientUnits="userSpaceOnUse" gradientTransform="translate(12.9449 7.19133) rotate(108.829) scale(13.39 10.6472)">
<stop offset="0.0971492" stop-color="#3C2B4F"/>
<stop offset="1" stop-color="#0B0410"/>
</radialGradient>
<radialGradient id="paint15_radial_336_1537" cx="0" cy="0" r="1" gradientUnits="userSpaceOnUse" gradientTransform="translate(11.6581 8.3567) rotate(90) scale(1.23821 2.88184)">
<stop stop-color="#493E56"/>
<stop offset="1" stop-color="#493E56" stop-opacity="0"/>
</radialGradient>
</defs>
</svg>
