<svg width="18" height="17" viewBox="0 0 18 17" fill="none" xmlns="http://www.w3.org/2000/svg">
<path d="M7.46468 0C3.79078 0 0.8125 2.97828 0.8125 6.65218C0.8125 10.3261 3.79078 13.3044 7.46468 13.3044C9.03533 13.3044 10.4789 12.76 11.6169 11.8497L16.5507 16.7835C16.8394 17.0722 17.3074 17.0722 17.596 16.7835C17.8847 16.4949 17.8847 16.0269 17.596 15.7382L12.6622 10.8044C13.5725 9.66636 14.1169 8.22283 14.1169 6.65218C14.1169 2.97828 11.1386 0 7.46468 0ZM2.29076 6.65218C2.29076 3.79471 4.60721 1.47826 7.46468 1.47826C10.3222 1.47826 12.6386 3.79471 12.6386 6.65218C12.6386 9.50966 10.3222 11.8261 7.46468 11.8261C4.60721 11.8261 2.29076 9.50966 2.29076 6.65218Z" fill="#272727"/>
</svg>
