<svg width="32" height="32" viewBox="0 0 32 32" fill="none" xmlns="http://www.w3.org/2000/svg">
<g filter="url(#filter0_iii_336_1573)">
<path d="M15.8214 11.1058C15.651 11.7676 15.0724 12.2613 14.3884 12.6033C12.4494 13.2742 10.9178 13.9196 9.65054 14.546C8.52862 15.1006 8.53945 16.8533 9.665 17.4005C10.9801 18.0398 12.6313 18.653 14.4651 19.3799C14.9581 19.5754 15.6549 20.1276 15.8284 20.8064C16.3629 22.8981 17.0901 25.1124 17.8908 27.1566C18.5125 28.7434 20.0493 28.7422 20.6739 27.1566C21.4848 25.0982 22.1009 22.8748 22.7962 20.7594C22.9626 20.1062 23.4552 19.5898 24.0905 19.3647C25.8075 18.7565 27.4626 18.07 28.8118 17.4758C30.0717 16.9209 30.0976 15.1193 28.8535 14.5299C27.525 13.9005 25.8724 13.1717 24.0823 12.5212C23.4522 12.2923 22.9675 11.8091 22.7436 11.1233C21.989 8.81237 21.5109 6.85311 20.7093 4.81844C20.0846 3.23279 18.4448 3.28159 17.8201 4.86724C17.0215 6.8944 16.4639 8.91217 15.8214 11.1058Z" fill="url(#paint0_linear_336_1573)"/>
</g>
<path d="M15.8214 11.1058C15.651 11.7676 15.0724 12.2613 14.3884 12.6033C12.4494 13.2742 10.9178 13.9196 9.65054 14.546C8.52862 15.1006 8.53945 16.8533 9.665 17.4005C10.9801 18.0398 12.6313 18.653 14.4651 19.3799C14.9581 19.5754 15.6549 20.1276 15.8284 20.8064C16.3629 22.8981 17.0901 25.1124 17.8908 27.1566C18.5125 28.7434 20.0493 28.7422 20.6739 27.1566C21.4848 25.0982 22.1009 22.8748 22.7962 20.7594C22.9626 20.1062 23.4552 19.5898 24.0905 19.3647C25.8075 18.7565 27.4626 18.07 28.8118 17.4758C30.0717 16.9209 30.0976 15.1193 28.8535 14.5299C27.525 13.9005 25.8724 13.1717 24.0823 12.5212C23.4522 12.2923 22.9675 11.8091 22.7436 11.1233C21.989 8.81237 21.5109 6.85311 20.7093 4.81844C20.0846 3.23279 18.4448 3.28159 17.8201 4.86724C17.0215 6.8944 16.4639 8.91217 15.8214 11.1058Z" fill="url(#paint1_linear_336_1573)"/>
<g filter="url(#filter1_ii_336_1573)">
<path d="M7.76778 5.81612C7.71293 6.02913 7.52669 6.18803 7.30655 6.2981C6.68247 6.51402 6.18953 6.72174 5.78164 6.92338C5.42054 7.10188 5.42403 7.66598 5.78629 7.8421C6.20957 8.04788 6.74101 8.24524 7.33122 8.47921C7.48992 8.54211 7.71418 8.71985 7.77001 8.93831C7.94205 9.61154 8.17611 10.3242 8.43384 10.9822C8.63391 11.4929 9.12855 11.4925 9.3296 10.9822C9.59058 10.3197 9.78887 9.60406 10.0127 8.92319C10.0662 8.71297 10.2248 8.54673 10.4292 8.4743C10.9819 8.27853 11.5146 8.0576 11.9488 7.86635C12.3543 7.68774 12.3627 7.1079 11.9622 6.91819C11.5347 6.71561 11.0028 6.48103 10.4266 6.27168C10.2238 6.19799 10.0678 6.04249 9.99573 5.82175C9.75287 5.07796 9.59898 4.44735 9.34099 3.79248C9.13993 3.28213 8.61213 3.29784 8.41107 3.80819C8.15402 4.46064 7.97457 5.11008 7.76778 5.81612Z" fill="url(#paint2_linear_336_1573)"/>
</g>
<path d="M7.76778 5.81612C7.71293 6.02913 7.52669 6.18803 7.30655 6.2981C6.68247 6.51402 6.18953 6.72174 5.78164 6.92338C5.42054 7.10188 5.42403 7.66598 5.78629 7.8421C6.20957 8.04788 6.74101 8.24524 7.33122 8.47921C7.48992 8.54211 7.71418 8.71985 7.77001 8.93831C7.94205 9.61154 8.17611 10.3242 8.43384 10.9822C8.63391 11.4929 9.12855 11.4925 9.3296 10.9822C9.59058 10.3197 9.78887 9.60406 10.0127 8.92319C10.0662 8.71297 10.2248 8.54673 10.4292 8.4743C10.9819 8.27853 11.5146 8.0576 11.9488 7.86635C12.3543 7.68774 12.3627 7.1079 11.9622 6.91819C11.5347 6.71561 11.0028 6.48103 10.4266 6.27168C10.2238 6.19799 10.0678 6.04249 9.99573 5.82175C9.75287 5.07796 9.59898 4.44735 9.34099 3.79248C9.13993 3.28213 8.61213 3.29784 8.41107 3.80819C8.15402 4.46064 7.97457 5.11008 7.76778 5.81612Z" fill="url(#paint3_linear_336_1573)"/>
<g filter="url(#filter2_i_336_1573)">
<path d="M5.22615 20.0655C5.14967 20.3625 4.88997 20.5841 4.58299 20.7376C3.71274 21.0387 3.02535 21.3283 2.45657 21.6095C1.95304 21.8584 1.9579 22.645 2.46306 22.8906C3.0533 23.1776 3.79436 23.4528 4.6174 23.779C4.83869 23.8668 5.15142 24.1146 5.22926 24.4192C5.46916 25.358 5.79555 26.3519 6.15494 27.2693C6.43394 27.9815 7.12368 27.981 7.40404 27.2693C7.76797 26.3455 8.04446 25.3476 8.35652 24.3982C8.4312 24.105 8.6523 23.8732 8.93744 23.7722C9.70806 23.4992 10.4509 23.1911 11.0564 22.9244C11.6219 22.6754 11.6335 21.8668 11.0751 21.6023C10.4789 21.3198 9.73717 20.9927 8.93375 20.7007C8.65096 20.598 8.43342 20.3812 8.33292 20.0733C7.99426 19.0362 7.77968 18.1568 7.41992 17.2436C7.13955 16.532 6.40356 16.5539 6.12319 17.2655C5.76475 18.1753 5.51452 19.081 5.22615 20.0655Z" fill="url(#paint4_radial_336_1573)"/>
</g>
<defs>
<filter id="filter0_iii_336_1573" x="8.41494" y="3.40332" width="21.607" height="25.1929" filterUnits="userSpaceOnUse" color-interpolation-filters="sRGB">
<feFlood flood-opacity="0" result="BackgroundImageFix"/>
<feBlend mode="normal" in="SourceGraphic" in2="BackgroundImageFix" result="shape"/>
<feColorMatrix in="SourceAlpha" type="matrix" values="0 0 0 0 0 0 0 0 0 0 0 0 0 0 0 0 0 0 127 0" result="hardAlpha"/>
<feOffset dx="0.25" dy="-0.25"/>
<feGaussianBlur stdDeviation="0.25"/>
<feComposite in2="hardAlpha" operator="arithmetic" k2="-1" k3="1"/>
<feColorMatrix type="matrix" values="0 0 0 0 0.937255 0 0 0 0 0.482353 0 0 0 0 0.329412 0 0 0 1 0"/>
<feBlend mode="normal" in2="shape" result="effect1_innerShadow_336_1573"/>
<feColorMatrix in="SourceAlpha" type="matrix" values="0 0 0 0 0 0 0 0 0 0 0 0 0 0 0 0 0 0 127 0" result="hardAlpha"/>
<feOffset dx="0.25" dy="0.25"/>
<feGaussianBlur stdDeviation="0.5"/>
<feComposite in2="hardAlpha" operator="arithmetic" k2="-1" k3="1"/>
<feColorMatrix type="matrix" values="0 0 0 0 0.737255 0 0 0 0 0.615686 0 0 0 0 0.415686 0 0 0 1 0"/>
<feBlend mode="normal" in2="effect1_innerShadow_336_1573" result="effect2_innerShadow_336_1573"/>
<feColorMatrix in="SourceAlpha" type="matrix" values="0 0 0 0 0 0 0 0 0 0 0 0 0 0 0 0 0 0 127 0" result="hardAlpha"/>
<feOffset dx="-0.4" dy="0.25"/>
<feGaussianBlur stdDeviation="0.2"/>
<feComposite in2="hardAlpha" operator="arithmetic" k2="-1" k3="1"/>
<feColorMatrix type="matrix" values="0 0 0 0 1 0 0 0 0 0.901961 0 0 0 0 0.458824 0 0 0 1 0"/>
<feBlend mode="normal" in2="effect2_innerShadow_336_1573" result="effect3_innerShadow_336_1573"/>
</filter>
<filter id="filter1_ii_336_1573" x="5.4127" y="3.41748" width="6.94512" height="8.04775" filterUnits="userSpaceOnUse" color-interpolation-filters="sRGB">
<feFlood flood-opacity="0" result="BackgroundImageFix"/>
<feBlend mode="normal" in="SourceGraphic" in2="BackgroundImageFix" result="shape"/>
<feColorMatrix in="SourceAlpha" type="matrix" values="0 0 0 0 0 0 0 0 0 0 0 0 0 0 0 0 0 0 127 0" result="hardAlpha"/>
<feOffset dx="0.1" dy="0.1"/>
<feGaussianBlur stdDeviation="0.1"/>
<feComposite in2="hardAlpha" operator="arithmetic" k2="-1" k3="1"/>
<feColorMatrix type="matrix" values="0 0 0 0 0.803922 0 0 0 0 0.6 0 0 0 0 0.262745 0 0 0 1 0"/>
<feBlend mode="normal" in2="shape" result="effect1_innerShadow_336_1573"/>
<feColorMatrix in="SourceAlpha" type="matrix" values="0 0 0 0 0 0 0 0 0 0 0 0 0 0 0 0 0 0 127 0" result="hardAlpha"/>
<feOffset dx="-0.1" dy="0.1"/>
<feGaussianBlur stdDeviation="0.1"/>
<feComposite in2="hardAlpha" operator="arithmetic" k2="-1" k3="1"/>
<feColorMatrix type="matrix" values="0 0 0 0 1 0 0 0 0 0.882353 0 0 0 0 0.423529 0 0 0 1 0"/>
<feBlend mode="normal" in2="effect1_innerShadow_336_1573" result="effect2_innerShadow_336_1573"/>
</filter>
<filter id="filter2_i_336_1573" x="2.08154" y="16.5707" width="9.55576" height="11.2325" filterUnits="userSpaceOnUse" color-interpolation-filters="sRGB">
<feFlood flood-opacity="0" result="BackgroundImageFix"/>
<feBlend mode="normal" in="SourceGraphic" in2="BackgroundImageFix" result="shape"/>
<feColorMatrix in="SourceAlpha" type="matrix" values="0 0 0 0 0 0 0 0 0 0 0 0 0 0 0 0 0 0 127 0" result="hardAlpha"/>
<feOffset dx="0.15" dy="-0.15"/>
<feGaussianBlur stdDeviation="0.15"/>
<feComposite in2="hardAlpha" operator="arithmetic" k2="-1" k3="1"/>
<feColorMatrix type="matrix" values="0 0 0 0 1 0 0 0 0 0.458824 0 0 0 0 0.462745 0 0 0 1 0"/>
<feBlend mode="normal" in2="shape" result="effect1_innerShadow_336_1573"/>
</filter>
<linearGradient id="paint0_linear_336_1573" x1="26.1289" y1="11.2711" x2="15.0526" y2="22.9312" gradientUnits="userSpaceOnUse">
<stop stop-color="#FFCF5A"/>
<stop offset="1" stop-color="#FEA254"/>
</linearGradient>
<linearGradient id="paint1_linear_336_1573" x1="14.754" y1="29.2901" x2="20.7919" y2="16.5539" gradientUnits="userSpaceOnUse">
<stop stop-color="#FF886D"/>
<stop offset="1" stop-color="#FF886D" stop-opacity="0"/>
</linearGradient>
<linearGradient id="paint2_linear_336_1573" x1="11.0853" y1="5.86931" x2="7.52035" y2="9.6222" gradientUnits="userSpaceOnUse">
<stop stop-color="#FFDA72"/>
<stop offset="1" stop-color="#F7A967"/>
</linearGradient>
<linearGradient id="paint3_linear_336_1573" x1="8.88525" y1="11.9801" x2="8.88525" y2="7.85514" gradientUnits="userSpaceOnUse">
<stop stop-color="#FDA071"/>
<stop offset="1" stop-color="#FDA071" stop-opacity="0"/>
</linearGradient>
<radialGradient id="paint4_radial_336_1573" cx="0" cy="0" r="1" gradientUnits="userSpaceOnUse" gradientTransform="translate(10.0137 18.5669) rotate(127.221) scale(7.07598 6.89067)">
<stop offset="0.364601" stop-color="#FFBC64"/>
<stop offset="1" stop-color="#FF8F6B"/>
</radialGradient>
</defs>
</svg>
