<svg width="16" height="16" viewBox="0 0 16 16" fill="none" xmlns="http://www.w3.org/2000/svg">
<path d="M6.00016 2.97319C6.64696 2.76815 7.32165 2.6647 8.00016 2.66653C10.7882 2.66653 12.6855 4.33319 13.8168 5.80253C14.3835 6.53986 14.6668 6.90719 14.6668 7.99986C14.6668 9.09319 14.3835 9.46053 13.8168 10.1972C12.6855 11.6665 10.7882 13.3332 8.00016 13.3332C5.21216 13.3332 3.31483 11.6665 2.1835 10.1972C1.61683 9.46119 1.3335 9.09253 1.3335 7.99986C1.3335 6.90653 1.61683 6.53919 2.1835 5.80253C2.52907 5.351 2.9139 4.93092 3.3335 4.54719" stroke="#828282" stroke-linecap="round"/>
<path d="M10 8C10 8.53043 9.78929 9.03914 9.41421 9.41421C9.03914 9.78929 8.53043 10 8 10C7.46957 10 6.96086 9.78929 6.58579 9.41421C6.21071 9.03914 6 8.53043 6 8C6 7.46957 6.21071 6.96086 6.58579 6.58579C6.96086 6.21071 7.46957 6 8 6C8.53043 6 9.03914 6.21071 9.41421 6.58579C9.78929 6.96086 10 7.46957 10 8Z" stroke="#828282"/>
</svg>
